<svg xmlns="http://www.w3.org/2000/svg" xmlns:xlink="http://www.w3.org/1999/xlink" version="1.1" width="1024" height="768" viewBox="0 0 1024 768" xml:space="preserve">
<desc>Created with Fabric.js 6.7.1</desc>
<defs>
</defs>
<g transform="matrix(1 0 0 1 512 384.3245)">
<path style="stroke: none; stroke-width: 1; stroke-dasharray: none; stroke-linecap: butt; stroke-dashoffset: 0; stroke-linejoin: miter; stroke-miterlimit: 4; fill: rgb(255,255,255); fill-rule: nonzero; opacity: 1;" transform=" translate(-512, -384.3245)" d="M 271.5862 341.467 C 271.6438 342.6545 271.6727 343.8502 271.6727 345.0536 C 271.6727 346.8328 271.61 348.5967 271.4839 350.3417 C 271.3588 352.0869 271.17 353.8139 270.9197 355.5197 C 270.8184 356.2399 270.6951 356.9601 270.568 357.6801 C 270.5362 357.8602 270.5134 358.0398 270.4797 358.2203 C 264.2628 392.3397 234.3087 418.2956 198.4307 418.2956 C 194.7721 418.2956 191.1779 418.0179 187.6621 417.4977 C 152.3544 412.2733 125.1887 381.7751 125.1887 345.0536 C 125.1887 304.6543 158.0318 271.8116 198.4307 271.8116 C 227.3796 271.8116 252.4572 288.6831 264.3255 313.1111 L 225.4336 313.1111 C 218.1489 306.936 208.7086 303.2103 198.4307 303.2103 C 175.342 303.2103 156.5873 321.9862 156.5873 345.0536 C 156.5873 368.121 175.342 386.8974 198.4307 386.8974 C 216.8891 386.8974 232.6068 374.8653 238.1362 358.2286 C 238.1372 358.2258 238.1382 358.2229 238.1393 358.2203 L 195.982 358.2203 L 195.982 331.008 L 270.3118 331.008 C 270.9873 334.415 271.4153 337.904 271.5862 341.467 Z M 386.6078 420.8586 L 347.9954 372.1215 L 326.4415 372.1215 L 326.4415 420.8586 L 293.9215 420.8586 L 293.9215 274.3748 L 326.441 274.3748 L 326.441 274.3747 L 326.4411 274.3747 L 326.4411 274.3746 L 364.4657 274.3746 L 364.4657 274.3748 C 368.1801 274.3748 371.7991 274.7455 375.2905 275.437 C 375.2906 275.437 375.2907 275.4371 375.2908 275.4371 C 398.2503 279.9855 415.5064 298.8181 415.5064 323.2479 C 415.5064 345.0572 401.7528 362.4052 382.4681 369.1139 L 423.4637 420.8586 Z M 364.4657 343.9378 C 365.9543 343.9378 367.3947 343.6923 368.7825 343.2805 C 368.7826 343.2804 368.7828 343.2804 368.783 343.2804 C 368.7832 343.2803 368.7834 343.2803 368.7836 343.2802 C 368.7833 343.2803 368.7829 343.2803 368.7826 343.2803 C 376.9165 340.8664 382.9863 331.9726 382.9863 323.248 C 382.9863 313.0346 374.679 302.5584 364.4656 302.5584 L 326.4415 302.5584 L 326.4415 343.9378 Z M 583.3171 347.5214 C 583.3171 389.5168 549.4061 423.4288 507.6075 423.4288 C 493.807 423.4288 480.7934 419.6827 469.7525 413.3735 L 456.9376 431.5123 L 435.2494 431.5123 L 455.3601 402.7262 C 440.7709 388.9258 431.7011 369.2096 431.7011 347.5214 C 431.7011 305.7239 465.6121 271.812 507.6075 271.812 C 519.8324 271.812 531.2665 274.7694 541.5203 279.8953 L 550.3916 267.2769 L 572.0795 267.2769 L 556.503 289.5561 L 558.4758 291.3314 L 563.7985 296.6541 C 576.0234 310.2588 583.3171 328.0031 583.3171 347.5214 Z M 474.6819 375.3211 L 522.3952 307.1037 C 517.8593 305.5261 512.7334 304.5408 507.6075 304.5408 C 483.7517 304.5408 464.4299 323.8624 464.4299 347.5214 C 464.4299 358.168 468.175 367.8288 474.6819 375.321 Z M 507.6075 390.7 C 531.2665 390.7 550.7869 371.3782 550.7869 347.5216 C 550.7869 335.4953 545.661 324.4537 537.5767 316.5679 L 488.6811 386.3629 C 494.3991 389.1225 500.7073 390.7 507.6075 390.7 Z M 705.0523 274.3746 L 737.5705 274.3746 L 737.5705 420.8586 L 633.3459 337.299 L 633.3459 420.8509 L 600.8277 420.8509 L 600.8277 274.3746 L 705.0523 357.9342 Z M 866.2932 274.3746 L 898.8114 274.3746 L 898.8114 420.8586 L 794.5868 337.299 L 794.5868 420.8509 L 762.0686 420.8509 L 762.0686 274.3746 L 866.2932 357.9342 Z M 139.1006 455.9696 C 142.8695 455.9696 146.0282 456.4319 148.5767 457.3567 C 151.1252 458.2815 153.1533 459.5441 154.6608 461.1447 C 156.1684 462.7097 157.2452 464.5237 157.8913 466.5866 C 158.5733 468.6495 158.9143 470.8192 158.9143 473.0955 C 158.9143 475.4074 158.5554 477.6127 157.8375 479.7112 C 157.1196 481.8097 155.971 483.677 154.3916 485.3131 C 152.8482 486.9137 150.8201 488.1942 148.3075 489.1545 C 145.7949 490.0793 142.7259 490.5416 139.1006 490.5416 L 122.3559 490.5416 L 122.3559 455.9695 Z M 128.4938 485.2065 L 139.0468 485.2065 C 141.703 485.2065 143.9105 484.8686 145.6693 484.1928 C 147.4281 483.517 148.828 482.61 149.8689 481.4718 C 150.9099 480.2981 151.6457 478.9998 152.0764 477.5771 C 152.5072 476.1188 152.7225 474.625 152.7225 473.0955 C 152.7225 471.5661 152.5072 470.1078 152.0764 468.7207 C 151.6457 467.298 150.9099 466.0353 149.8689 464.9327 C 148.828 463.7945 147.4281 462.9053 145.6693 462.2651 C 143.9105 461.5893 141.703 461.2514 139.0468 461.2514 L 128.4938 461.2514 Z M 187.3966 481.7919 L 193.1577 481.7919 C 192.8705 483.6059 192.1526 485.2242 191.004 486.647 C 189.8913 488.0341 188.3658 489.1367 186.4275 489.9548 C 184.4892 490.7373 182.174 491.1285 179.4819 491.1285 C 176.4309 491.1285 173.7029 490.5772 171.298 489.4746 C 168.8931 488.3364 167.0086 486.7359 165.6446 484.6729 C 164.2806 482.61 163.5986 480.1558 163.5986 477.3103 C 163.5986 474.5005 164.2627 472.0463 165.5908 469.9478 C 166.9189 467.8493 168.7495 466.2309 171.0826 465.0927 C 173.4517 463.9546 176.1796 463.3855 179.2665 463.3855 C 182.4611 463.3855 185.1173 463.9546 187.2351 465.0927 C 189.3888 466.1953 190.9861 467.867 192.027 470.1078 C 193.0679 472.313 193.4987 475.1051 193.3192 478.4841 L 169.6827 478.4841 C 169.8622 479.9779 170.3468 481.3295 171.1365 482.5388 C 171.962 483.7126 173.0748 484.6373 174.4746 485.3131 C 175.8745 485.9534 177.5077 486.2735 179.3742 486.2735 C 181.4561 486.2735 183.197 485.8644 184.5969 485.0464 C 186.0326 484.2283 186.9659 483.1435 187.3966 481.7919 Z M 179.105 468.1872 C 176.6642 468.1872 174.6541 468.7918 173.0748 470.0011 C 171.4954 471.1749 170.4724 472.6865 170.0058 474.536 L 187.2889 474.536 C 187.1454 472.5442 186.3377 470.997 184.8661 469.8944 C 183.3944 468.7563 181.4741 468.1872 179.105 468.1872 Z M 197.5036 481.7919 L 203.0493 481.7919 C 203.3364 483.1435 204.0723 484.2461 205.2568 485.0997 C 206.4413 485.9178 208.0386 486.3268 210.0487 486.3268 C 211.3409 486.3268 212.3459 486.1846 213.0638 485.9 C 213.8176 485.6155 214.3381 485.2242 214.6252 484.7263 C 214.9483 484.2283 215.1098 483.6592 215.1098 483.019 C 215.1098 482.2365 214.8765 481.6319 214.4099 481.205 C 213.9791 480.7782 213.333 480.4225 212.4716 480.138 C 211.6101 479.8535 210.5333 479.6045 209.2411 479.3911 C 207.913 479.071 206.6028 478.7153 205.3106 478.324 C 204.0184 477.9328 202.8519 477.4526 201.8109 476.8835 C 200.77 476.2789 199.9444 475.532 199.3342 474.6428 C 198.7599 473.718 198.4727 472.5976 198.4727 471.2816 C 198.4727 470.0723 198.742 468.9874 199.2804 468.0271 C 199.8547 467.0312 200.6444 466.1954 201.6494 465.5196 C 202.6544 464.8438 203.839 464.328 205.2029 463.9724 C 206.5669 463.5811 208.0565 463.3855 209.6718 463.3855 C 212.0049 463.3855 213.9432 463.7589 215.4867 464.5059 C 217.066 465.2528 218.2506 466.3021 219.0402 467.6536 C 219.8658 469.0052 220.2786 470.5524 220.2786 472.2953 L 215.0021 472.2953 C 214.715 470.8725 214.1586 469.8411 213.333 469.2008 C 212.5075 468.5606 211.2691 468.2405 209.618 468.2405 C 207.9668 468.2405 206.7105 468.525 205.849 469.0941 C 204.9876 469.6632 204.5568 470.4457 204.5568 471.4416 C 204.5568 472.1886 204.8261 472.7932 205.3645 473.2556 C 205.9388 473.6824 206.7464 474.0559 207.7873 474.376 C 208.8283 474.6961 210.0487 475.0162 211.4486 475.3363 C 212.7408 475.692 213.9612 476.0655 215.1098 476.4567 C 216.2584 476.8124 217.2814 477.2748 218.1788 477.8439 C 219.112 478.3774 219.8478 479.0887 220.3863 479.9779 C 220.9247 480.8671 221.1939 481.9698 221.1939 483.2858 C 221.1939 484.9219 220.7452 486.3268 219.8479 487.5006 C 218.9864 488.6743 217.7301 489.5813 216.0789 490.2215 C 214.4278 490.8262 212.4357 491.1285 210.1025 491.1285 C 208.0565 491.1285 206.2798 490.8973 204.7722 490.4349 C 203.3005 489.9725 202.0622 489.3679 201.0571 488.621 C 200.088 487.874 199.3342 487.0737 198.7958 486.2201 C 198.2574 485.3665 197.8805 484.5484 197.6651 483.7659 C 197.4856 482.9834 197.4318 482.3254 197.5036 481.7919 Z M 226.9702 463.9724 L 233.0004 463.9724 L 233.0004 490.5417 L 226.9702 490.5417 Z M 233.5927 452.7151 L 233.5927 458.4237 L 226.4317 458.4237 L 226.4317 452.7151 Z M 245.2763 485.0997 C 243.2662 484.2105 241.6689 482.9123 240.4844 481.205 C 239.3358 479.4978 238.7615 477.4526 238.7615 475.0696 C 238.7615 472.6865 239.3178 470.6236 240.4306 468.8807 C 241.5792 467.1379 243.1585 465.7863 245.1686 464.826 C 247.2146 463.8657 249.5298 463.3855 252.1142 463.3855 C 252.868 463.3855 253.5859 463.4388 254.2679 463.5455 C 254.9858 463.6522 255.6677 463.7945 256.3138 463.9724 L 268.8589 464.0257 L 268.8589 468.9875 C 267.136 469.023 265.3951 468.7918 263.6363 468.2939 C 262.4748 467.9342 261.403 467.5665 260.421 467.1906 C 261.0482 467.602 261.6354 468.0586 262.1826 468.5606 C 263.1876 469.4143 263.9773 470.3924 264.5516 471.495 C 265.1259 472.5976 265.4131 473.8425 265.4131 475.2296 C 265.4131 477.5771 264.8388 479.5867 263.6901 481.2584 C 262.5774 482.9301 261.016 484.2106 259.0059 485.0998 C 257.0317 485.989 254.7345 486.4336 252.1142 486.4336 C 249.9964 486.5047 248.3812 486.7003 247.2685 487.0204 C 246.1916 487.305 245.6532 487.8919 245.6532 488.7811 C 245.6532 489.3146 245.8686 489.7414 246.2993 490.0615 C 246.73 490.3816 247.3402 490.5417 248.1299 490.5417 L 255.7754 490.5417 C 257.965 490.5417 259.8853 490.7907 261.5365 491.2886 C 263.1876 491.8221 264.4619 492.6935 265.3592 493.9029 C 266.2925 495.1477 266.7591 496.8372 266.7591 498.9713 L 266.7591 501.3721 L 260.7288 501.3721 L 260.7288 500.145 C 260.7288 498.4022 260.2084 497.1751 259.1674 496.4637 C 258.1265 495.7524 256.6728 495.3967 254.8063 495.3967 L 247.5376 495.3967 C 246.1019 495.3967 244.8635 495.2722 243.8226 495.0232 C 242.8175 494.8098 242.0099 494.4719 241.3997 494.0096 C 240.7895 493.5827 240.3408 493.067 240.0537 492.4623 C 239.7665 491.8933 239.6229 491.253 239.6229 490.5417 C 239.6229 489.119 240.0537 488.0519 240.9151 487.3406 C 241.8125 486.6292 242.9791 486.1668 244.4148 485.9534 C 245.2897 485.8265 246.19 485.7625 247.1157 485.7614 C 246.4829 485.5782 245.8698 485.3577 245.2763 485.0998 Z M 252.1142 481.7919 C 253.55 481.7919 254.8242 481.5252 255.9369 480.9916 C 257.0497 480.4581 257.9291 479.6934 258.5752 478.6975 C 259.2213 477.7016 259.5443 476.4923 259.5443 475.0696 C 259.5443 473.6468 259.2213 472.4197 258.5752 471.3883 C 257.9291 470.3568 257.0497 469.5743 255.9369 469.0408 C 254.8242 468.5073 253.55 468.2405 252.1142 468.2405 C 250.7143 468.2405 249.4401 468.5073 248.2914 469.0408 C 247.1787 469.5743 246.2993 470.3568 245.6532 471.3883 C 245.0071 472.3842 244.6841 473.6113 244.6841 475.0696 C 244.6841 476.4923 245.0071 477.7016 245.6532 478.6975 C 246.2993 479.6934 247.1787 480.4581 248.2914 480.9916 C 249.4042 481.5252 250.6784 481.7919 252.1142 481.7919 Z M 273.6508 463.9724 L 279.6272 463.9724 L 279.6272 471.6163 C 279.8321 470.9322 280.1013 470.2693 280.4348 469.6277 C 281.045 468.4184 281.8527 467.3514 282.8577 466.4266 C 283.8628 465.4662 285.0473 464.7193 286.4113 464.1858 C 287.7752 463.6523 289.2828 463.3855 290.9339 463.3855 C 292.4774 463.3855 293.8952 463.5989 295.1874 464.0257 C 296.5155 464.4526 297.6462 465.1106 298.5795 465.9998 C 299.5486 466.8534 300.2844 467.9204 300.787 469.2009 C 301.3254 470.4813 301.5946 471.993 301.5946 473.7358 L 301.5946 490.5417 L 295.6182 490.5417 L 295.6182 474.9095 C 295.6182 472.7399 295.0797 471.1393 294.0029 470.1079 C 292.962 469.0408 291.3108 468.5073 289.0495 468.5073 C 287.3266 468.5073 285.7472 468.8808 284.3114 469.6277 C 282.9115 470.3391 281.7629 471.2816 280.8656 472.4554 C 280.3065 473.1645 279.8937 473.9219 279.6272 474.7277 L 279.6272 490.5417 L 273.6508 490.5417 Z M 308.594 463.9724 L 314.6242 463.9724 L 314.6242 490.5417 L 308.594 490.5417 Z M 315.2165 452.7151 L 315.2165 458.4237 L 308.0555 458.4237 L 308.0555 452.7151 Z M 321.7852 463.9724 L 327.7616 463.9724 L 327.7616 471.6163 C 327.9665 470.9322 328.2357 470.2693 328.5692 469.6277 C 329.1794 468.4184 329.9871 467.3514 330.9921 466.4266 C 331.9971 465.4662 333.1817 464.7193 334.5457 464.1858 C 335.9096 463.6523 337.4172 463.3855 339.0683 463.3855 C 340.6118 463.3855 342.0296 463.5989 343.3218 464.0257 C 344.6499 464.4526 345.7806 465.1106 346.7139 465.9998 C 347.683 466.8534 348.4188 467.9204 348.9214 469.2009 C 349.4598 470.4813 349.729 471.993 349.729 473.7358 L 349.729 490.5417 L 343.7526 490.5417 L 343.7526 474.9095 C 343.7526 472.7399 343.2141 471.1393 342.1373 470.1079 C 341.0964 469.0408 339.4452 468.5073 337.1839 468.5073 C 335.461 468.5073 333.8816 468.8808 332.4458 469.6277 C 331.0459 470.3391 329.8973 471.2816 329 472.4554 C 328.4409 473.1645 328.0281 473.9219 327.7616 474.7277 L 327.7616 490.5417 L 321.7852 490.5417 Z M 361.4664 485.0997 C 359.4563 484.2105 357.859 482.9123 356.6745 481.205 C 355.5259 479.4978 354.9516 477.4526 354.9516 475.0696 C 354.9516 472.6865 355.5079 470.6236 356.6207 468.8807 C 357.7693 467.1379 359.3486 465.7863 361.3587 464.826 C 363.4047 463.8657 365.7199 463.3855 368.3043 463.3855 C 369.0581 463.3855 369.776 463.4388 370.458 463.5455 C 371.1758 463.6522 371.8578 463.7945 372.5039 463.9724 L 385.049 464.0257 L 385.049 468.9875 C 383.3261 469.023 381.5852 468.7918 379.8264 468.2939 C 378.6649 467.9342 377.5931 467.5665 376.6111 467.1906 C 377.2383 467.602 377.8255 468.0586 378.3727 468.5606 C 379.3777 469.4143 380.1674 470.3924 380.7417 471.495 C 381.316 472.5976 381.6032 473.8425 381.6032 475.2296 C 381.6032 477.5771 381.0288 479.5867 379.8802 481.2584 C 378.7675 482.9301 377.2061 484.2106 375.196 485.0998 C 373.2218 485.989 370.9246 486.4336 368.3043 486.4336 C 366.1865 486.5047 364.5713 486.7003 363.4585 487.0204 C 362.3817 487.305 361.8433 487.8919 361.8433 488.7811 C 361.8433 489.3146 362.0587 489.7414 362.4894 490.0615 C 362.9201 490.3816 363.5303 490.5417 364.32 490.5417 L 371.9655 490.5417 C 374.1551 490.5417 376.0754 490.7907 377.7266 491.2886 C 379.3777 491.8221 380.652 492.6935 381.5493 493.9029 C 382.4826 495.1477 382.9492 496.8372 382.9492 498.9713 L 382.9492 501.3721 L 376.9189 501.3721 L 376.9189 500.145 C 376.9189 498.4022 376.3985 497.1751 375.3575 496.4637 C 374.3166 495.7524 372.8629 495.3967 370.9964 495.3967 L 363.7277 495.3967 C 362.292 495.3967 361.0536 495.2722 360.0127 495.0232 C 359.0076 494.8098 358.2 494.4719 357.5898 494.0096 C 356.9796 493.5827 356.5309 493.067 356.2438 492.4623 C 355.9566 491.8933 355.813 491.253 355.813 490.5417 C 355.813 489.119 356.2438 488.0519 357.1052 487.3406 C 358.0026 486.6292 359.1692 486.1668 360.6049 485.9534 C 361.4798 485.8265 362.3801 485.7625 363.3058 485.7614 C 362.673 485.5782 362.0599 485.3577 361.4664 485.0998 Z M 368.3043 481.7919 C 369.7401 481.7919 371.0143 481.5252 372.127 480.9916 C 373.2398 480.4581 374.1192 479.6934 374.7653 478.6975 C 375.4114 477.7016 375.7344 476.4923 375.7344 475.0696 C 375.7344 473.6468 375.4114 472.4197 374.7653 471.3883 C 374.1192 470.3568 373.2398 469.5743 372.127 469.0408 C 371.0143 468.5073 369.7401 468.2405 368.3043 468.2405 C 366.9044 468.2405 365.6302 468.5073 364.4815 469.0408 C 363.3688 469.5743 362.4894 470.3568 361.8433 471.3883 C 361.1972 472.3842 360.8741 473.6113 360.8741 475.0696 C 360.8741 476.4923 361.1972 477.7016 361.8433 478.6975 C 362.4894 479.6934 363.3688 480.4581 364.4815 480.9916 C 365.5943 481.5252 366.8685 481.7919 368.3043 481.7919 Z M 409.224 455.9696 L 409.224 485.3132 L 430.976 485.3132 L 430.976 490.5417 L 403.086 490.5417 L 403.086 455.9696 Z M 437.2754 463.9724 L 443.3056 463.9724 L 443.3056 490.5417 L 437.2754 490.5417 Z M 443.898 452.7151 L 443.898 458.4237 L 436.737 458.4237 L 436.737 452.7151 Z M 470.7649 463.9724 L 477.2797 463.9724 L 465.4345 490.5417 L 459.7273 490.5417 L 448.0437 463.9724 L 454.6124 463.9724 L 462.5695 483.7551 Z M 481.964 463.9724 L 487.9942 463.9724 L 487.9942 490.5417 L 481.964 490.5417 Z M 488.5865 452.7151 L 488.5865 458.4237 L 481.4255 458.4237 L 481.4255 452.7151 Z M 495.1551 463.9724 L 501.1315 463.9724 L 501.1315 471.6163 C 501.3364 470.9322 501.6056 470.2693 501.9391 469.6277 C 502.5493 468.4184 503.357 467.3514 504.362 466.4266 C 505.3671 465.4662 506.5516 464.7193 507.9156 464.1858 C 509.2795 463.6523 510.7871 463.3855 512.4382 463.3855 C 513.9817 463.3855 515.3995 463.5989 516.6917 464.0257 C 518.0198 464.4526 519.1505 465.1106 520.0838 465.9998 C 521.0529 466.8534 521.7887 467.9204 522.2913 469.2009 C 522.8297 470.4813 523.0989 471.993 523.0989 473.7358 L 523.0989 490.5417 L 517.1225 490.5417 L 517.1225 474.9095 C 517.1225 472.7399 516.5841 471.1393 515.5072 470.1079 C 514.4663 469.0408 512.8151 468.5073 510.5538 468.5073 C 508.8309 468.5073 507.2515 468.8808 505.8157 469.6277 C 504.4159 470.3391 503.2672 471.2816 502.3699 472.4554 C 501.8108 473.1645 501.398 473.9219 501.1315 474.7277 L 501.1315 490.5417 L 495.1551 490.5417 Z M 534.8364 485.0997 C 532.8263 484.2105 531.229 482.9123 530.0445 481.205 C 528.8959 479.4978 528.3216 477.4526 528.3216 475.0696 C 528.3216 472.6865 528.8779 470.6236 529.9907 468.8807 C 531.1393 467.1379 532.7186 465.7863 534.7287 464.826 C 536.7747 463.8657 539.0899 463.3855 541.6743 463.3855 C 542.4281 463.3855 543.146 463.4388 543.828 463.5455 C 544.5458 463.6522 545.2278 463.7945 545.8739 463.9724 L 558.419 464.0257 L 558.419 468.9875 C 556.6961 469.023 554.9552 468.7918 553.1964 468.2939 C 552.0349 467.9342 550.9631 467.5665 549.9811 467.1906 C 550.6083 467.602 551.1955 468.0586 551.7427 468.5606 C 552.7477 469.4143 553.5374 470.3924 554.1117 471.495 C 554.686 472.5976 554.9732 473.8425 554.9732 475.2296 C 554.9732 477.5771 554.3988 479.5867 553.2502 481.2584 C 552.1375 482.9301 550.5761 484.2106 548.566 485.0998 C 546.5918 485.989 544.2946 486.4336 541.6743 486.4336 C 539.5565 486.5047 537.9413 486.7003 536.8285 487.0204 C 535.7517 487.305 535.2133 487.8919 535.2133 488.7811 C 535.2133 489.3146 535.4287 489.7414 535.8594 490.0615 C 536.2901 490.3816 536.9003 490.5417 537.69 490.5417 L 545.3355 490.5417 C 547.5251 490.5417 549.4454 490.7907 551.0966 491.2886 C 552.7477 491.8221 554.022 492.6935 554.9193 493.9029 C 555.8526 495.1477 556.3192 496.8372 556.3192 498.9713 L 556.3192 501.3721 L 550.2889 501.3721 L 550.2889 500.145 C 550.2889 498.4022 549.7685 497.1751 548.7275 496.4637 C 547.6866 495.7524 546.2329 495.3967 544.3664 495.3967 L 537.0977 495.3967 C 535.662 495.3967 534.4236 495.2722 533.3827 495.0232 C 532.3776 494.8098 531.57 494.4719 530.9598 494.0096 C 530.3496 493.5827 529.9009 493.067 529.6138 492.4623 C 529.3266 491.8933 529.183 491.253 529.183 490.5417 C 529.183 489.119 529.6138 488.0519 530.4752 487.3406 C 531.3726 486.6292 532.5392 486.1668 533.9749 485.9534 C 534.8498 485.8265 535.7501 485.7625 536.6758 485.7614 C 536.043 485.5782 535.4299 485.3577 534.8364 485.0998 Z M 541.6743 481.7919 C 543.1101 481.7919 544.3843 481.5252 545.497 480.9916 C 546.6098 480.4581 547.4892 479.6934 548.1353 478.6975 C 548.7814 477.7016 549.1044 476.4923 549.1044 475.0696 C 549.1044 473.6468 548.7814 472.4197 548.1353 471.3883 C 547.4892 470.3568 546.6098 469.5743 545.497 469.0408 C 544.3843 468.5073 543.1101 468.2405 541.6743 468.2405 C 540.2744 468.2405 539.0002 468.5073 537.8515 469.0408 C 536.7388 469.5743 535.8594 470.3568 535.2133 471.3883 C 534.5672 472.3842 534.2441 473.6113 534.2441 475.0696 C 534.2441 476.4923 534.5672 477.7016 535.2133 478.6975 C 535.8594 479.6934 536.7388 480.4581 537.8515 480.9916 C 538.9643 481.5252 540.2385 481.7919 541.6743 481.7919 Z M 582.5939 475.8165 L 582.5939 485.3132 L 607.0918 485.3132 L 607.0918 490.5417 L 576.456 490.5417 L 576.456 455.9696 L 607.038 455.9696 L 607.038 461.1981 L 582.5939 461.1981 L 582.5939 470.8014 L 602.623 470.8014 L 602.623 475.8165 Z M 641.8735 480.2447 C 641.6581 482.5211 640.9223 484.4773 639.666 486.1134 C 638.4097 487.7496 636.7226 488.9944 634.6049 489.8481 C 632.523 490.7017 630.1181 491.1285 627.3901 491.1285 C 624.4468 491.1285 621.7726 490.595 619.3677 489.528 C 616.9987 488.4609 615.1142 486.8959 613.7143 484.833 C 612.3144 482.77 611.6145 480.2625 611.6145 477.3104 C 611.6145 474.3582 612.3144 471.8507 613.7143 469.7877 C 615.1142 467.7248 616.9987 466.142 619.3677 465.0394 C 621.7726 463.9368 624.4468 463.3855 627.3901 463.3855 C 630.1181 463.3855 632.523 463.8301 634.6049 464.7193 C 636.6867 465.5729 638.3558 466.8 639.6121 468.4006 C 640.8684 470.0011 641.6043 471.9396 641.8196 474.2159 L 636.3278 474.2159 C 635.7176 472.3308 634.6049 470.8725 632.9896 469.8411 C 631.4103 468.774 629.5438 468.2405 627.3901 468.2405 C 625.6313 468.2405 624.016 468.5962 622.5444 469.3076 C 621.0727 469.9834 619.8882 470.997 618.9908 472.3486 C 618.1293 473.6646 617.6986 475.3186 617.6986 477.3104 C 617.6986 479.2666 618.1293 480.9205 618.9908 482.2721 C 619.8882 483.6237 621.0727 484.6374 622.5444 485.3132 C 624.016 485.9534 625.6313 486.2735 627.3901 486.2735 C 629.7591 486.2735 631.6974 485.7578 633.205 484.7263 C 634.7484 483.6593 635.8073 482.1654 636.3816 480.2447 Z M 661.418 491.1285 C 658.4387 491.1285 655.7646 490.595 653.3956 489.528 C 651.0265 488.4609 649.16 486.8959 647.796 484.833 C 646.432 482.77 645.7501 480.2625 645.7501 477.3104 C 645.7501 474.3938 646.432 471.904 647.796 469.8411 C 649.16 467.7426 651.0265 466.142 653.3956 465.0394 C 655.7646 463.9368 658.4387 463.3855 661.418 463.3855 C 664.3972 463.3855 667.0534 463.9368 669.3865 465.0394 C 671.7197 466.142 673.5503 467.7426 674.8784 469.8411 C 676.2423 471.904 676.9243 474.3938 676.9243 477.3104 C 676.9243 480.2625 676.2423 482.77 674.8784 484.833 C 673.5503 486.8959 671.7197 488.4609 669.3865 489.528 C 667.0534 490.595 664.3972 491.1285 661.418 491.1285 Z M 661.418 486.2735 C 663.1409 486.2735 664.7202 485.9356 666.156 485.2598 C 667.5918 484.584 668.7225 483.5703 669.548 482.2187 C 670.4095 480.8672 670.8402 479.231 670.8402 477.3104 C 670.8402 475.3897 670.4095 473.7536 669.548 472.402 C 668.7225 471.0504 667.5918 470.0189 666.156 469.3076 C 664.7561 468.5606 663.1768 468.1872 661.418 468.1872 C 659.6591 468.1872 658.0618 468.5428 656.6261 469.2542 C 655.1903 469.9656 654.0237 470.997 653.1264 472.3486 C 652.2649 473.7002 651.8342 475.3541 651.8342 477.3104 C 651.8342 479.231 652.2649 480.8672 653.1264 482.2188 C 653.9878 483.5703 655.1364 484.584 656.5722 485.2598 C 658.0439 485.9356 659.6591 486.2735 661.418 486.2735 Z M 681.1089 481.7919 L 686.6546 481.7919 C 686.9417 483.1435 687.6776 484.2461 688.8621 485.0997 C 690.0466 485.9178 691.6439 486.3268 693.654 486.3268 C 694.9462 486.3268 695.9512 486.1846 696.6691 485.9 C 697.4229 485.6155 697.9434 485.2242 698.2305 484.7263 C 698.5536 484.2283 698.7151 483.6592 698.7151 483.019 C 698.7151 482.2365 698.4818 481.6319 698.0152 481.205 C 697.5844 480.7782 696.9383 480.4225 696.0769 480.138 C 695.2154 479.8535 694.1386 479.6045 692.8464 479.3911 C 691.5183 479.071 690.2081 478.7153 688.9159 478.324 C 687.6237 477.9328 686.4571 477.4526 685.4162 476.8835 C 684.3753 476.2789 683.5497 475.532 682.9395 474.6428 C 682.3652 473.718 682.078 472.5976 682.078 471.2816 C 682.078 470.0723 682.3472 468.9874 682.8857 468.0271 C 683.46 467.0312 684.2496 466.1954 685.2547 465.5196 C 686.2597 464.8438 687.4442 464.328 688.8082 463.9724 C 690.1722 463.5811 691.6618 463.3855 693.2771 463.3855 C 695.6102 463.3855 697.5485 463.7589 699.092 464.5059 C 700.6713 465.2528 701.8558 466.3021 702.6455 467.6536 C 703.4711 469.0052 703.8839 470.5524 703.8839 472.2953 L 698.6074 472.2953 C 698.3202 470.8725 697.7639 469.8411 696.9383 469.2008 C 696.1127 468.5606 694.8744 468.2405 693.2232 468.2405 C 691.5721 468.2405 690.3158 468.525 689.4543 469.0941 C 688.5929 469.6632 688.1621 470.4457 688.1621 471.4416 C 688.1621 472.1886 688.4313 472.7932 688.9698 473.2556 C 689.5441 473.6824 690.3517 474.0559 691.3926 474.376 C 692.4336 474.6961 693.654 475.0162 695.0539 475.3363 C 696.3461 475.692 697.5665 476.0655 698.7151 476.4567 C 699.8637 476.8124 700.8867 477.2748 701.7841 477.8439 C 702.7173 478.3774 703.4531 479.0887 703.9916 479.9779 C 704.53 480.8671 704.7992 481.9698 704.7992 483.2858 C 704.7992 484.9219 704.3505 486.3268 703.4531 487.5006 C 702.5917 488.6743 701.3354 489.5813 699.6842 490.2215 C 698.0331 490.8262 696.041 491.1285 693.7078 491.1285 C 691.6618 491.1285 689.8851 490.8973 688.3775 490.4349 C 686.9058 489.9725 685.6675 489.3679 684.6624 488.621 C 683.6933 487.874 682.9395 487.0737 682.4011 486.2201 C 681.8627 485.3665 681.4858 484.5484 681.2704 483.7659 C 681.0909 482.9834 681.0371 482.3254 681.1089 481.7919 Z M 706.9142 463.9724 L 713.3213 463.9724 L 721.801 483.9545 L 730.3891 463.9724 L 736.7962 463.9724 L 719.5669 501.212 L 713.2675 501.212 L 718.8313 490.2258 Z M 739.0963 481.7919 L 744.642 481.7919 C 744.9291 483.1435 745.665 484.2461 746.8495 485.0997 C 748.034 485.9178 749.6313 486.3268 751.6414 486.3268 C 752.9336 486.3268 753.9386 486.1846 754.6565 485.9 C 755.4103 485.6155 755.9308 485.2242 756.2179 484.7263 C 756.541 484.2283 756.7025 483.6592 756.7025 483.019 C 756.7025 482.2365 756.4692 481.6319 756.0026 481.205 C 755.5718 480.7782 754.9257 480.4225 754.0643 480.138 C 753.2028 479.8535 752.126 479.6045 750.8338 479.3911 C 749.5057 479.071 748.1955 478.7153 746.9033 478.324 C 745.6111 477.9328 744.4446 477.4526 743.4036 476.8835 C 742.3627 476.2789 741.5371 475.532 740.9269 474.6428 C 740.3526 473.718 740.0654 472.5976 740.0654 471.2816 C 740.0654 470.0723 740.3347 468.9874 740.8731 468.0271 C 741.4474 467.0312 742.237 466.1954 743.2421 465.5196 C 744.2471 464.8438 745.4316 464.328 746.7956 463.9724 C 748.1596 463.5811 749.6492 463.3855 751.2645 463.3855 C 753.5976 463.3855 755.5359 463.7589 757.0794 464.5059 C 758.6587 465.2528 759.8432 466.3021 760.6329 467.6536 C 761.4585 469.0052 761.8713 470.5524 761.8713 472.2953 L 756.5948 472.2953 C 756.3076 470.8725 755.7513 469.8411 754.9257 469.2008 C 754.1001 468.5606 752.8618 468.2405 751.2106 468.2405 C 749.5595 468.2405 748.3032 468.525 747.4417 469.0941 C 746.5803 469.6632 746.1495 470.4457 746.1495 471.4416 C 746.1495 472.1886 746.4187 472.7932 746.9572 473.2556 C 747.5315 473.6824 748.3391 474.0559 749.38 474.376 C 750.421 474.6961 751.6414 475.0162 753.0413 475.3363 C 754.3335 475.692 755.5539 476.0655 756.7025 476.4567 C 757.8511 476.8124 758.8741 477.2748 759.7715 477.8439 C 760.7047 478.3774 761.4406 479.0887 761.979 479.9779 C 762.5174 480.8671 762.7866 481.9698 762.7866 483.2858 C 762.7866 484.9219 762.3379 486.3268 761.4406 487.5006 C 760.5791 488.6743 759.3228 489.5813 757.6716 490.2215 C 756.0205 490.8262 754.0284 491.1285 751.6952 491.1285 C 749.6492 491.1285 747.8725 490.8973 746.3649 490.4349 C 744.8932 489.9725 743.6549 489.3679 742.6498 488.621 C 741.6807 487.874 740.9269 487.0737 740.3885 486.2201 C 739.8501 485.3665 739.4732 484.5484 739.2578 483.7659 C 739.0783 482.9834 739.0245 482.3254 739.0963 481.7919 Z M 766.3014 463.9723 L 772.7624 463.9723 L 772.7624 456.8232 L 778.7926 456.8232 L 778.7926 463.9723 L 785.2536 463.9723 L 785.2536 468.8274 L 778.7926 468.8274 L 778.7926 490.5416 L 772.7624 490.5416 L 772.7624 468.8274 L 766.3014 468.8274 Z M 811.9053 481.7919 L 817.6664 481.7919 C 817.3792 483.6059 816.6613 485.2242 815.5127 486.647 C 814.4 488.0341 812.8745 489.1367 810.9362 489.9548 C 808.9979 490.7373 806.6827 491.1285 803.9906 491.1285 C 800.9396 491.1285 798.2116 490.5772 795.8067 489.4746 C 793.4018 488.3364 791.5173 486.7359 790.1533 484.6729 C 788.7893 482.61 788.1073 480.1558 788.1073 477.3103 C 788.1073 474.5005 788.7714 472.0463 790.0995 469.9478 C 791.4276 467.8493 793.2582 466.2309 795.5913 465.0927 C 797.9604 463.9546 800.6883 463.3855 803.7752 463.3855 C 806.9698 463.3855 809.626 463.9546 811.7438 465.0927 C 813.8975 466.1953 815.4948 467.867 816.5357 470.1078 C 817.5766 472.313 818.0074 475.1051 817.8279 478.4841 L 794.1914 478.4841 C 794.3709 479.9779 794.8555 481.3295 795.6452 482.5388 C 796.4707 483.7126 797.5835 484.6373 798.9833 485.3131 C 800.3832 485.9534 802.0164 486.2735 803.8829 486.2735 C 805.9648 486.2735 807.7057 485.8644 809.1056 485.0464 C 810.5414 484.2283 811.4746 483.1435 811.9053 481.7919 Z M 803.6137 468.1872 C 801.1729 468.1872 799.1628 468.7918 797.5835 470.0011 C 796.0041 471.1749 794.9811 472.6865 794.5145 474.536 L 811.7976 474.536 C 811.6541 472.5442 810.8464 470.997 809.3748 469.8944 C 807.9031 468.7563 805.9827 468.1872 803.6137 468.1872 Z M 823.1581 463.9724 L 829.1345 463.9724 L 829.1345 471.6163 C 829.3394 470.9322 829.6086 470.2693 829.9422 469.6277 C 830.5524 468.4184 831.36 467.3514 832.365 466.4266 C 833.3701 465.4662 834.5546 464.7193 835.9186 464.1858 C 837.2826 463.6523 838.7901 463.3855 840.4413 463.3855 C 841.9847 463.3855 843.4026 463.5989 844.6948 464.0257 C 846.0229 464.4526 847.1535 465.1106 848.0868 465.9998 C 849.0559 466.8534 849.7918 467.9204 850.2943 469.2009 C 850.5015 469.6937 850.6688 470.2207 850.7963 470.7819 C 850.9613 470.3733 851.1529 469.9708 851.3711 469.5744 C 852.0172 468.365 852.8428 467.298 853.8479 466.3732 C 854.8529 465.4485 856.0195 464.7193 857.3476 464.1858 C 858.7115 463.6523 860.2012 463.3855 861.8164 463.3855 C 863.3958 463.3855 864.8315 463.5989 866.1237 464.0257 C 867.4159 464.4526 868.5286 465.1106 869.4619 465.9998 C 870.4311 466.8534 871.1848 467.9204 871.7233 469.2009 C 872.2617 470.4813 872.5309 471.993 872.5309 473.7358 L 872.5309 490.5417 L 866.5006 490.5417 L 866.5006 474.9095 C 866.5006 472.7399 865.9622 471.1393 864.8854 470.1079 C 863.8444 469.0408 862.1933 468.5073 859.9319 468.5073 C 858.209 468.5073 856.6297 468.8808 855.1939 469.6277 C 853.794 470.3391 852.6454 471.2816 851.748 472.4554 C 851.5028 472.7793 851.2867 473.1134 851.0996 473.4576 C 851.1011 473.5497 851.1019 473.6424 851.1019 473.7358 L 851.1019 490.5417 L 845.1255 490.5417 L 845.1255 474.9095 C 845.1255 472.7399 844.5871 471.1393 843.5103 470.1079 C 842.4693 469.0408 840.8182 468.5073 838.5568 468.5073 C 836.8339 468.5073 835.2545 468.8808 833.8188 469.6277 C 832.4189 470.339 831.2703 471.2816 830.3729 472.4553 C 829.8138 473.1645 829.401 473.9219 829.1345 474.7277 L 829.1345 490.5417 L 823.1581 490.5417 Z M 877.9538 481.7919 L 883.4995 481.7919 C 883.7866 483.1435 884.5225 484.2461 885.707 485.0997 C 886.8915 485.9178 888.4888 486.3268 890.4989 486.3268 C 891.7911 486.3268 892.7961 486.1846 893.514 485.9 C 894.2678 485.6155 894.7883 485.2242 895.0754 484.7263 C 895.3985 484.2283 895.56 483.6592 895.56 483.019 C 895.56 482.2365 895.3267 481.6319 894.8601 481.205 C 894.4293 480.7782 893.7832 480.4225 892.9218 480.138 C 892.0603 479.8535 890.9835 479.6045 889.6913 479.3911 C 888.3632 479.071 887.053 478.7153 885.7608 478.324 C 884.4686 477.9328 883.3021 477.4526 882.2611 476.8835 C 881.2202 476.2789 880.3946 475.532 879.7844 474.6428 C 879.2101 473.718 878.9229 472.5976 878.9229 471.2816 C 878.9229 470.0723 879.1921 468.9874 879.7306 468.0271 C 880.3049 467.0312 881.0945 466.1954 882.0996 465.5196 C 883.1046 464.8438 884.2891 464.328 885.6531 463.9724 C 887.0171 463.5811 888.5067 463.3855 890.122 463.3855 C 892.4551 463.3855 894.3934 463.7589 895.9369 464.5059 C 897.5162 465.2528 898.7007 466.3021 899.4904 467.6536 C 900.316 469.0052 900.7288 470.5524 900.7288 472.2953 L 895.4523 472.2953 C 895.1651 470.8725 894.6088 469.8411 893.7832 469.2008 C 892.9576 468.5606 891.7193 468.2405 890.0681 468.2405 C 888.417 468.2405 887.1607 468.525 886.2992 469.0941 C 885.4378 469.6632 885.007 470.4457 885.007 471.4416 C 885.007 472.1886 885.2762 472.7932 885.8147 473.2556 C 886.389 473.6824 887.1966 474.0559 888.2375 474.376 C 889.2785 474.6961 890.4989 475.0162 891.8988 475.3363 C 893.191 475.692 894.4114 476.0655 895.56 476.4567 C 896.7086 476.8124 897.7316 477.2748 898.629 477.8439 C 899.5622 478.3774 900.298 479.0887 900.8365 479.9779 C 901.3749 480.8671 901.6441 481.9698 901.6441 483.2858 C 901.6441 484.9219 901.1954 486.3268 900.298 487.5006 C 899.4366 488.6743 898.1803 489.5813 896.5291 490.2215 C 894.878 490.8262 892.8859 491.1285 890.5527 491.1285 C 888.5067 491.1285 886.73 490.8973 885.2224 490.4349 C 883.7507 489.9725 882.5124 489.3679 881.5073 488.621 C 880.5382 487.874 879.7844 487.0737 879.246 486.2201 C 878.7076 485.3665 878.3307 484.5484 878.1153 483.7659 C 877.9358 482.9834 877.882 482.3254 877.9538 481.7919 Z" stroke-linecap="round"/>
</g>
</svg>