<svg xmlns="http://www.w3.org/2000/svg" width="1024" height="768" viewBox="0 0 1024 768"><g><defs><linearGradient id="SVGID_1" gradientUnits="userSpaceOnUse" x1="84.1476" y1="80.93433" x2="120.00819" y2="80.93433" gradientTransform="matrix(1 0 0 1 0 0)"><stop offset="0%" stop-color="rgb(171,171,171)" stop-opacity="0"/><stop offset="36.142%" stop-color="rgb(171,171,171)" stop-opacity="0.32528"/><stop offset="66.685%" stop-color="rgb(171,171,171)" stop-opacity="0.60017"/><stop offset="95.116%" stop-color="rgb(171,171,171)" stop-opacity="0.85604"/><stop offset="100%" stop-color="rgb(171,171,171)" stop-opacity="0.9"/></linearGradient><animate attributeName="opacity" dur="1s" fill="freeze" calcMode="spline" keyTimes="0;1" keySplines="0.55 0.055 0.675 0.19" begin="0s" values="1;0"/></defs><animateTransform attributeName="transform" type="translate" additive="sum" fill="freeze" calcMode="spline" dur="1s" begin="0s" keyTimes="0;1" keySplines="0.55 0.055 0.675 0.19" values="0 0;0 100"/></g><g><path d="M 135.9575 98.2371 C 135.9858 98.8208 136 99.4085 136 100 C 136 100.8745 135.9692 101.7415 135.9072 102.5992 C 135.8457 103.457 135.7529 104.3059 135.6299 105.1443 C 135.5801 105.4983 135.5195 105.8523 135.457 106.2062 C 135.4414 106.2947 135.4302 106.383 135.4136 106.4717 C 132.3579 123.2421 117.6348 136 100 136 C 98.2017 136 96.4351 135.8635 94.707 135.6078 C 77.3525 133.0399 64 118.0494 64 100 C 64 80.1429 80.1431 64 100 64 C 114.229 64 126.5552 72.2927 132.3887 84.2996 L 113.2725 84.2996 C 109.6919 81.2644 105.0518 79.4331 100 79.4331 C 88.6514 79.4331 79.4331 88.6619 79.4331 100 C 79.4331 111.3381 88.6514 120.5671 100 120.5671 C 109.0727 120.5671 116.7983 114.6531 119.5161 106.4758 C 119.5166 106.4744 119.5171 106.473 119.5176 106.4717 L 98.7964 106.4717 L 98.7964 93.0963 L 119.3633 93.0963 L 135.3311 93.0963 C 135.6631 94.7709 135.8735 96.4858 135.9575 98.2371 Z" stroke-linecap="round" fill="rgb(255,255,255)" stroke="none" stroke-width="1" fill-rule="nonzero" opacity="1" transform="matrix(2.0345,0,0,2.0345,-5.019346999999982,141.6035839)"><animate attributeName="opacity" dur="1s" fill="freeze" calcMode="spline" keyTimes="0;1" keySplines="0.55 0.055 0.675 0.19" begin="0.16666666666666666s" values="1;0"/></path><animateTransform attributeName="transform" type="translate" additive="sum" fill="freeze" calcMode="spline" dur="1s" begin="0.16666666666666666s" keyTimes="0;1" keySplines="0.55 0.055 0.675 0.19" values="0 0;0 100"/></g><g><path d="M 113.7208 136 L 94.742 112.0447 L 84.1475 112.0447 L 84.1475 98.1918 L 102.8375 98.1918 C 103.5692 98.1918 104.2772 98.0711 104.9593 97.8687 C 113.4391 96.8212 120.0081 89.6055 120.0081 80.8425 C 120.0081 73.218 115.0345 66.7631 108.158 64.5222 C 119.4432 66.7577 127.9251 76.0144 127.9251 88.0223 C 127.9251 98.742 121.1649 107.2689 111.6861 110.5664 L 131.8363 136 L 113.7208 136 Z" stroke-linecap="round" fill="rgb(255,255,255)" stroke="none" stroke-width="1" fill-rule="nonzero" opacity="1" transform="matrix(2.0345,0,0,2.0345,155.24289735000005,144.166647)"><animate attributeName="opacity" dur="1s" fill="freeze" calcMode="spline" keyTimes="0;1" keySplines="0.55 0.055 0.675 0.19" begin="0.8333333333333333s" values="1;0"/></path><animateTransform attributeName="transform" type="translate" additive="sum" fill="freeze" calcMode="spline" dur="1s" begin="0.8333333333333333s" keyTimes="0;1" keySplines="0.55 0.055 0.675 0.19" values="0 0;0 100"/></g><g><path d="M 120.0082 80.8425 C 120.0082 89.6055 113.4391 96.8212 104.9594 97.8687 C 108.9574 96.6821 111.9408 92.3106 111.9408 88.0223 C 111.9408 83.0023 107.8576 77.8529 102.8375 77.8529 L 84.1478 77.8529 L 84.1478 136 L 68.1635 136 L 68.1635 64.0001 L 84.1476 64.0001 L 84.1476 64 L 102.8375 64 L 102.8375 64.0001 C 104.6632 64.0001 106.442 64.1823 108.1581 64.5222 C 115.0346 66.7631 120.0082 73.218 120.0082 80.8425 Z" stroke-linecap="round" fill="rgb(255,91,4)" stroke="none" stroke-width="1" fill-rule="nonzero" opacity="1" transform="matrix(2.0345,0,0,2.0345,155.24289735000002,144.166647)"><animate attributeName="opacity" dur="1s" fill="freeze" calcMode="spline" keyTimes="0;1" keySplines="0.55 0.055 0.675 0.19" begin="0.6666666666666666s" values="1;0"/></path><animateTransform attributeName="transform" type="translate" additive="sum" fill="freeze" calcMode="spline" dur="1s" begin="0.6666666666666666s" keyTimes="0;1" keySplines="0.55 0.055 0.675 0.19" values="0 0;0 100"/></g><g><path d="M 84.1476 64 L 102.8375 64 L 102.8375 64.0001 C 104.6632 64.0001 106.442 64.1823 108.1581 64.5222 C 115.0346 66.7631 120.0082 73.218 120.0082 80.8425 C 120.0082 89.6055 113.4391 96.8212 104.9594 97.8686 C 108.9574 96.6821 111.9408 92.3106 111.9408 88.0223 C 111.9408 83.0022 107.8576 77.8529 102.8375 77.8529 L 84.1478 77.8529 L 84.1476 64 Z" stroke-linecap="round" fill="url(#SVGID_1)" stroke="none" stroke-width="1" fill-rule="nonzero" opacity="1" transform="matrix(2.0345,0,0,2.0345,155.24269390000003,144.16664699999998)"><animate attributeName="opacity" dur="1s" fill="freeze" calcMode="spline" keyTimes="0;1" keySplines="0.55 0.055 0.675 0.19" begin="0.7222222222222222s" values="1;0"/></path><animateTransform attributeName="transform" type="translate" additive="sum" fill="freeze" calcMode="spline" dur="1s" begin="0.7222222222222222s" keyTimes="0;1" keySplines="0.55 0.055 0.675 0.19" values="0 0;0 100"/></g><g><path d="M 137.2637 85.0566 C 137.2637 105.6982 120.5957 122.3667 100.0508 122.3667 C 93.2676 122.3667 86.8711 120.5254 81.4443 117.4243 L 75.1455 126.3399 L 64.4853 126.3399 L 74.3701 112.1909 C 67.1992 105.4077 62.7412 95.7168 62.7412 85.0566 C 62.7412 64.5122 79.4092 47.8438 100.0508 47.8438 C 106.0596 47.8438 111.6797 49.2974 116.7197 51.8169 L 121.0801 45.6147 L 131.7402 45.6147 L 124.084 56.5654 L 125.0537 57.438 L 127.6699 60.0542 C 133.6787 66.7412 137.2637 75.4629 137.2637 85.0566 Z M 83.8672 98.7207 L 107.3193 65.1904 C 105.0898 64.415 102.5703 63.9307 100.0508 63.9307 C 88.3252 63.9307 78.8281 73.4277 78.8281 85.0566 C 78.8281 90.2896 80.6689 95.0381 83.8672 98.7207 Z M 100.0508 106.2798 C 111.6797 106.2798 121.2744 96.7827 121.2744 85.0567 C 121.2744 79.1455 118.7549 73.7183 114.7813 69.8423 L 90.7481 104.148 C 93.5586 105.5044 96.6592 106.2798 100.0508 106.2798 Z" stroke-linecap="round" fill="rgb(255,255,255)" stroke="none" stroke-width="1" fill-rule="nonzero" opacity="1" transform="matrix(2.0345,0,0,2.0345,304.05395845,174.47377969999997)"><animate attributeName="opacity" dur="1s" fill="freeze" calcMode="spline" keyTimes="0;1" keySplines="0.55 0.055 0.675 0.19" begin="1.222222222222222s" values="1;0"/></path><animateTransform attributeName="transform" type="translate" additive="sum" fill="freeze" calcMode="spline" dur="1s" begin="1.222222222222222s" keyTimes="0;1" keySplines="0.55 0.055 0.675 0.19" values="0 0;0 100"/></g><g><path d="M 117.6226 64 L 133.606 64 L 133.606 117.8856 L 133.606 135.9963 L 133.606 136 L 82.3774 94.9287 L 82.3774 135.9962 L 66.394 135.9962 L 66.394 64.0001 L 66.394 64 L 117.6226 105.0713 L 117.6226 64 Z" stroke-linecap="round" fill="rgb(255,255,255)" stroke="none" stroke-width="1" fill-rule="nonzero" opacity="1" transform="matrix(2.0345,0,0,2.0345,465.7493046,144.166647)"><animate attributeName="opacity" dur="1s" fill="freeze" calcMode="spline" keyTimes="0;1" keySplines="0.55 0.055 0.675 0.19" begin="1.5555555555555554s" values="1;0"/></path><animateTransform attributeName="transform" type="translate" additive="sum" fill="freeze" calcMode="spline" dur="1s" begin="1.5555555555555554s" keyTimes="0;1" keySplines="0.55 0.055 0.675 0.19" values="0 0;0 100"/></g><g><path d="M 117.6226 64 L 133.606 64 L 133.606 117.8856 L 133.606 135.9963 L 133.606 136 L 82.3774 94.9287 L 82.3774 135.9962 L 66.394 135.9962 L 66.394 64.0001 L 66.394 64 L 117.6226 105.0713 L 117.6226 64 Z" stroke-linecap="round" fill="rgb(255,255,255)" stroke="none" stroke-width="1" fill-rule="nonzero" opacity="1" transform="matrix(2.0345,0,0,2.0345,626.9899399999999,144.166647)"><animate attributeName="opacity" dur="1s" fill="freeze" calcMode="spline" keyTimes="0;1" keySplines="0.55 0.055 0.675 0.19" begin="1.8888888888888888s" values="1;0"/></path><animateTransform attributeName="transform" type="translate" additive="sum" fill="freeze" calcMode="spline" dur="1s" begin="1.8888888888888888s" keyTimes="0;1" keySplines="0.55 0.055 0.675 0.19" values="0 0;0 100"/></g><g><path d="M 98.92 72.844 Q 106.48 72.844 111.592 74.716 Q 116.704 76.588 119.728 79.828 Q 122.752 82.996 124.048 87.172 Q 125.416 91.348 125.416 95.956 Q 125.416 100.636 123.976 104.884 Q 122.536 109.132 119.368 112.444 Q 116.272 115.684 111.232 117.628 Q 106.192 119.5 98.92 119.5 L 76.528 119.5 L 76.528 72.844 Z M 84.736 112.3 L 98.848 112.3 Q 104.176 112.3 107.704 110.932 Q 111.232 109.564 113.32 107.26 Q 115.408 104.884 116.272 102.004 Q 117.136 99.052 117.136 95.956 Q 117.136 92.86 116.272 90.052 Q 115.408 87.172 113.32 84.94 Q 111.232 82.636 107.704 81.34 Q 104.176 79.972 98.848 79.972 L 84.736 79.972 Z" stroke-linecap="round" fill="rgb(255,255,255)" stroke="none" stroke-width="1" fill-rule="nonzero" opacity="1" transform="matrix(0.7478,0,0,0.741,65.12825517999998,401.992156)"><animate attributeName="opacity" dur="1s" fill="freeze" calcMode="spline" keyTimes="0;1" keySplines="0.55 0.055 0.675 0.19" begin="0.05555555555555555s" values="1;0"/></path><animateTransform attributeName="transform" type="translate" additive="sum" fill="freeze" calcMode="spline" dur="1s" begin="0.05555555555555555s" keyTimes="0;1" keySplines="0.55 0.055 0.675 0.19" values="0 0;0 100"/></g><g><path d="M 111.916 107.692 L 119.62 107.692 Q 119.044 111.364 116.74 114.244 Q 114.508 117.052 110.62 118.708 Q 106.732 120.292 101.332 120.292 Q 95.212 120.292 90.388 118.06 Q 85.564 115.756 82.828 111.58 Q 80.092 107.404 80.092 101.644 Q 80.092 95.956 82.756 91.708 Q 85.42 87.46 90.1 85.156 Q 94.852 82.852 101.044 82.852 Q 107.452 82.852 111.7 85.156 Q 116.02 87.388 118.108 91.924 Q 120.196 96.388 119.836 103.228 L 88.228 103.228 Q 88.588 106.252 90.172 108.7 Q 91.828 111.076 94.636 112.444 Q 97.444 113.74 101.188 113.74 Q 105.364 113.74 108.172 112.084 Q 111.052 110.428 111.916 107.692 Z M 100.828 89.332 Q 95.932 89.332 92.764 91.78 Q 89.596 94.156 88.66 97.9 L 111.772 97.9 Q 111.484 93.868 108.532 91.636 Q 105.58 89.332 100.828 89.332 Z" stroke-linecap="round" fill="rgb(255,255,255)" stroke="none" stroke-width="1" fill-rule="nonzero" opacity="1" transform="matrix(0.7478,0,0,0.741,103.70576158000001,401.992156)"><animate attributeName="opacity" dur="1s" fill="freeze" calcMode="spline" keyTimes="0;1" keySplines="0.55 0.055 0.675 0.19" begin="0.1111111111111111s" values="1;0"/></path><animateTransform attributeName="transform" type="translate" additive="sum" fill="freeze" calcMode="spline" dur="1s" begin="0.1111111111111111s" keyTimes="0;1" keySplines="0.55 0.055 0.675 0.19" values="0 0;0 100"/></g><g><path d="M 84.196 107.692 L 91.612 107.692 Q 92.188 110.428 94.564 112.156 Q 96.94 113.812 100.972 113.812 Q 103.564 113.812 105.004 113.236 Q 106.516 112.66 107.092 111.652 Q 107.74 110.644 107.74 109.348 Q 107.74 107.764 106.804 106.9 Q 105.94 106.036 104.212 105.46 Q 102.484 104.884 99.892 104.452 Q 97.228 103.804 94.636 103.012 Q 92.044 102.22 89.956 101.068 Q 87.868 99.844 86.644 98.044 Q 85.492 96.172 85.492 93.508 Q 85.492 91.06 86.572 89.116 Q 87.724 87.1 89.74 85.732 Q 91.756 84.364 94.492 83.644 Q 97.228 82.852 100.468 82.852 Q 105.148 82.852 108.244 84.364 Q 111.412 85.876 112.996 88.612 Q 114.652 91.348 114.652 94.876 L 107.596 94.876 Q 107.02 91.996 105.364 90.7 Q 103.708 89.404 100.396 89.404 Q 97.084 89.404 95.356 90.556 Q 93.628 91.708 93.628 93.724 Q 93.628 95.236 94.708 96.172 Q 95.86 97.036 97.948 97.684 Q 100.036 98.332 102.844 98.98 Q 105.436 99.7 107.74 100.492 Q 110.044 101.212 111.844 102.364 Q 113.716 103.444 114.796 105.244 Q 115.876 107.044 115.876 109.708 Q 115.876 113.02 114.076 115.396 Q 112.348 117.772 109.036 119.068 Q 105.724 120.292 101.044 120.292 Q 96.94 120.292 93.916 119.356 Q 90.964 118.42 88.948 116.908 Q 87.004 115.396 85.924 113.668 Q 84.844 111.94 84.412 110.356 Q 84.052 108.772 84.196 107.692 Z" stroke-linecap="round" fill="rgb(255,255,255)" stroke="none" stroke-width="1" fill-rule="nonzero" opacity="1" transform="matrix(0.7478,0,0,0.741,134.54189281999996,401.992156)"><animate attributeName="opacity" dur="1s" fill="freeze" calcMode="spline" keyTimes="0;1" keySplines="0.55 0.055 0.675 0.19" begin="0.2222222222222222s" values="1;0"/></path><animateTransform attributeName="transform" type="translate" additive="sum" fill="freeze" calcMode="spline" dur="1s" begin="0.2222222222222222s" keyTimes="0;1" keySplines="0.55 0.055 0.675 0.19" values="0 0;0 100"/></g><g><path d="M 95.896 83.644 L 103.96 83.644 L 103.96 119.5 L 95.896 119.5 Z" stroke-linecap="round" fill="rgb(255,255,255)" stroke="none" stroke-width="1" fill-rule="nonzero" opacity="1" transform="matrix(0.7478,0,0,0.741,155.25909358,401.992156)"><animate attributeName="opacity" dur="1s" fill="freeze" calcMode="spline" keyTimes="0;1" keySplines="0.55 0.055 0.675 0.19" begin="0.2777777777777778s" values="1;0"/></path><animateTransform attributeName="transform" type="translate" additive="sum" fill="freeze" calcMode="spline" dur="1s" begin="0.2777777777777778s" keyTimes="0;1" keySplines="0.55 0.055 0.675 0.19" values="0 0;0 100"/></g><g><path d="M 104.752 68.452 L 104.752 76.156 L 95.176 76.156 L 95.176 68.452 Z" stroke-linecap="round" fill="rgb(255,255,255)" stroke="none" stroke-width="1" fill-rule="nonzero" opacity="1" transform="matrix(0.7478,0,0,0.741,155.25909358,401.992156)"><animate attributeName="opacity" dur="1s" fill="freeze" calcMode="spline" keyTimes="0;1" keySplines="0.55 0.055 0.675 0.19" begin="0.3333333333333333s" values="1;0"/></path><animateTransform attributeName="transform" type="translate" additive="sum" fill="freeze" calcMode="spline" dur="1s" begin="0.3333333333333333s" keyTimes="0;1" keySplines="0.55 0.055 0.675 0.19" values="0 0;0 100"/></g><g><path d="M 98.056 113.956 Q 93.016 113.956 88.912 112.156 Q 84.88 110.356 82.504 106.9 Q 80.2 103.444 80.2 98.62 Q 80.2 93.796 82.432 90.268 Q 84.736 86.74 88.768 84.796 Q 92.872 82.852 98.056 82.852 Q 99.568 82.852 100.936 83.068 Q 102.376 83.284 103.672 83.644 L 120.448 83.716 L 120.448 90.412 Q 116.992 90.484 113.464 89.476 Q 110.008 88.396 107.344 87.244 L 107.128 86.812 Q 109.576 88.036 111.52 89.836 Q 113.536 91.564 114.688 93.796 Q 115.84 96.028 115.84 98.836 Q 115.84 103.588 113.536 106.972 Q 111.304 110.356 107.272 112.156 Q 103.312 113.956 98.056 113.956 Z M 109.576 134.116 L 109.576 132.46 Q 109.576 128.932 107.488 127.492 Q 105.4 126.052 101.656 126.052 L 91.936 126.052 Q 89.056 126.052 86.968 125.548 Q 84.952 125.116 83.728 124.18 Q 82.504 123.316 81.928 122.092 Q 81.352 120.94 81.352 119.5 Q 81.352 116.62 83.08 115.18 Q 84.88 113.74 87.76 113.308 Q 90.712 112.876 93.952 113.164 L 98.056 113.956 Q 93.808 114.1 91.576 114.748 Q 89.416 115.324 89.416 117.124 Q 89.416 118.204 90.28 118.852 Q 91.144 119.5 92.728 119.5 L 102.952 119.5 Q 107.344 119.5 110.656 120.508 Q 113.968 121.588 115.768 124.036 Q 117.64 126.556 117.64 130.876 L 117.64 134.116 Z M 98.056 107.692 Q 100.936 107.692 103.168 106.612 Q 105.4 105.532 106.696 103.516 Q 107.992 101.5 107.992 98.62 Q 107.992 95.74 106.696 93.652 Q 105.4 91.564 103.168 90.484 Q 100.936 89.404 98.056 89.404 Q 95.248 89.404 92.944 90.484 Q 90.712 91.564 89.416 93.652 Q 88.12 95.668 88.12 98.62 Q 88.12 101.5 89.416 103.516 Q 90.712 105.532 92.944 106.612 Q 95.176 107.692 98.056 107.692 Z" stroke-linecap="round" fill="rgb(255,255,255)" stroke="none" stroke-width="1" fill-rule="nonzero" opacity="1" transform="matrix(0.7478,0,0,0.741,178.78787278,401.992156)"><animate attributeName="opacity" dur="1s" fill="freeze" calcMode="spline" keyTimes="0;1" keySplines="0.55 0.055 0.675 0.19" begin="0.38888888888888884s" values="1;0"/></path><animateTransform attributeName="transform" type="translate" additive="sum" fill="freeze" calcMode="spline" dur="1s" begin="0.38888888888888884s" keyTimes="0;1" keySplines="0.55 0.055 0.675 0.19" values="0 0;0 100"/></g><g><path d="M 81.352 83.644 L 89.344 83.644 L 89.344 119.5 L 81.352 119.5 Z M 104.464 82.852 Q 107.56 82.852 110.152 83.716 Q 112.816 84.58 114.688 86.38 Q 116.632 88.108 117.64 90.7 Q 118.72 93.292 118.72 96.82 L 118.72 119.5 L 110.728 119.5 L 110.728 98.404 Q 110.728 94.012 108.568 91.924 Q 106.48 89.764 101.944 89.764 Q 98.488 89.764 95.608 91.276 Q 92.8 92.716 91 95.092 Q 89.2 97.396 88.912 100.204 L 88.84 96.316 Q 89.2 93.652 90.424 91.276 Q 91.648 88.828 93.664 86.956 Q 95.68 85.012 98.416 83.932 Q 101.152 82.852 104.464 82.852 Z" stroke-linecap="round" fill="rgb(255,255,255)" stroke="none" stroke-width="1" fill-rule="nonzero" opacity="1" transform="matrix(0.7478,0,0,0.741,212.81576397999999,401.992156)"><animate attributeName="opacity" dur="1s" fill="freeze" calcMode="spline" keyTimes="0;1" keySplines="0.55 0.055 0.675 0.19" begin="0.4444444444444444s" values="1;0"/></path><animateTransform attributeName="transform" type="translate" additive="sum" fill="freeze" calcMode="spline" dur="1s" begin="0.4444444444444444s" keyTimes="0;1" keySplines="0.55 0.055 0.675 0.19" values="0 0;0 100"/></g><g><path d="M 95.896 83.644 L 103.96 83.644 L 103.96 119.5 L 95.896 119.5 Z" stroke-linecap="round" fill="rgb(255,255,255)" stroke="none" stroke-width="1" fill-rule="nonzero" opacity="1" transform="matrix(0.7478,0,0,0.741,236.88295917999992,401.992156)"><animate attributeName="opacity" dur="1s" fill="freeze" calcMode="spline" keyTimes="0;1" keySplines="0.55 0.055 0.675 0.19" begin="0.5s" values="1;0"/></path><animateTransform attributeName="transform" type="translate" additive="sum" fill="freeze" calcMode="spline" dur="1s" begin="0.5s" keyTimes="0;1" keySplines="0.55 0.055 0.675 0.19" values="0 0;0 100"/></g><g><path d="M 104.752 68.452 L 104.752 76.156 L 95.176 76.156 L 95.176 68.452 Z" stroke-linecap="round" fill="rgb(255,255,255)" stroke="none" stroke-width="1" fill-rule="nonzero" opacity="1" transform="matrix(0.7478,0,0,0.741,236.88295917999994,401.992156)"><animate attributeName="opacity" dur="1s" fill="freeze" calcMode="spline" keyTimes="0;1" keySplines="0.55 0.055 0.675 0.19" begin="0.5555555555555556s" values="1;0"/></path><animateTransform attributeName="transform" type="translate" additive="sum" fill="freeze" calcMode="spline" dur="1s" begin="0.5555555555555556s" keyTimes="0;1" keySplines="0.55 0.055 0.675 0.19" values="0 0;0 100"/></g><g><path d="M 81.352 83.644 L 89.344 83.644 L 89.344 119.5 L 81.352 119.5 Z M 104.464 82.852 Q 107.56 82.852 110.152 83.716 Q 112.816 84.58 114.688 86.38 Q 116.632 88.108 117.64 90.7 Q 118.72 93.292 118.72 96.82 L 118.72 119.5 L 110.728 119.5 L 110.728 98.404 Q 110.728 94.012 108.568 91.924 Q 106.48 89.764 101.944 89.764 Q 98.488 89.764 95.608 91.276 Q 92.8 92.716 91 95.092 Q 89.2 97.396 88.912 100.204 L 88.84 96.316 Q 89.2 93.652 90.424 91.276 Q 91.648 88.828 93.664 86.956 Q 95.68 85.012 98.416 83.932 Q 101.152 82.852 104.464 82.852 Z" stroke-linecap="round" fill="rgb(255,255,255)" stroke="none" stroke-width="1" fill-rule="nonzero" opacity="1" transform="matrix(0.7478,0,0,0.741,260.95015438,401.992156)"><animate attributeName="opacity" dur="1s" fill="freeze" calcMode="spline" keyTimes="0;1" keySplines="0.55 0.055 0.675 0.19" begin="0.611111111111111s" values="1;0"/></path><animateTransform attributeName="transform" type="translate" additive="sum" fill="freeze" calcMode="spline" dur="1s" begin="0.611111111111111s" keyTimes="0;1" keySplines="0.55 0.055 0.675 0.19" values="0 0;0 100"/></g><g><path d="M 98.056 113.956 Q 93.016 113.956 88.912 112.156 Q 84.88 110.356 82.504 106.9 Q 80.2 103.444 80.2 98.62 Q 80.2 93.796 82.432 90.268 Q 84.736 86.74 88.768 84.796 Q 92.872 82.852 98.056 82.852 Q 99.568 82.852 100.936 83.068 Q 102.376 83.284 103.672 83.644 L 120.448 83.716 L 120.448 90.412 Q 116.992 90.484 113.464 89.476 Q 110.008 88.396 107.344 87.244 L 107.128 86.812 Q 109.576 88.036 111.52 89.836 Q 113.536 91.564 114.688 93.796 Q 115.84 96.028 115.84 98.836 Q 115.84 103.588 113.536 106.972 Q 111.304 110.356 107.272 112.156 Q 103.312 113.956 98.056 113.956 Z M 109.576 134.116 L 109.576 132.46 Q 109.576 128.932 107.488 127.492 Q 105.4 126.052 101.656 126.052 L 91.936 126.052 Q 89.056 126.052 86.968 125.548 Q 84.952 125.116 83.728 124.18 Q 82.504 123.316 81.928 122.092 Q 81.352 120.94 81.352 119.5 Q 81.352 116.62 83.08 115.18 Q 84.88 113.74 87.76 113.308 Q 90.712 112.876 93.952 113.164 L 98.056 113.956 Q 93.808 114.1 91.576 114.748 Q 89.416 115.324 89.416 117.124 Q 89.416 118.204 90.28 118.852 Q 91.144 119.5 92.728 119.5 L 102.952 119.5 Q 107.344 119.5 110.656 120.508 Q 113.968 121.588 115.768 124.036 Q 117.64 126.556 117.64 130.876 L 117.64 134.116 Z M 98.056 107.692 Q 100.936 107.692 103.168 106.612 Q 105.4 105.532 106.696 103.516 Q 107.992 101.5 107.992 98.62 Q 107.992 95.74 106.696 93.652 Q 105.4 91.564 103.168 90.484 Q 100.936 89.404 98.056 89.404 Q 95.248 89.404 92.944 90.484 Q 90.712 91.564 89.416 93.652 Q 88.12 95.668 88.12 98.62 Q 88.12 101.5 89.416 103.516 Q 90.712 105.532 92.944 106.612 Q 95.176 107.692 98.056 107.692 Z" stroke-linecap="round" fill="rgb(255,255,255)" stroke="none" stroke-width="1" fill-rule="nonzero" opacity="1" transform="matrix(0.7478,0,0,0.741,294.97804558,401.992156)"><animate attributeName="opacity" dur="1s" fill="freeze" calcMode="spline" keyTimes="0;1" keySplines="0.55 0.055 0.675 0.19" begin="0.7777777777777777s" values="1;0"/></path><animateTransform attributeName="transform" type="translate" additive="sum" fill="freeze" calcMode="spline" dur="1s" begin="0.7777777777777777s" keyTimes="0;1" keySplines="0.55 0.055 0.675 0.19" values="0 0;0 100"/></g><g><path d="M 90.64 72.844 L 90.64 112.444 L 119.728 112.444 L 119.728 119.5 L 82.432 119.5 L 82.432 72.844 Z" stroke-linecap="round" fill="rgb(255,255,255)" stroke="none" stroke-width="1" fill-rule="nonzero" opacity="1" transform="matrix(0.7478,0,0,0.741,341.44334638,401.992156)"><animate attributeName="opacity" dur="1s" fill="freeze" calcMode="spline" keyTimes="0;1" keySplines="0.55 0.055 0.675 0.19" begin="0.8888888888888888s" values="1;0"/></path><animateTransform attributeName="transform" type="translate" additive="sum" fill="freeze" calcMode="spline" dur="1s" begin="0.8888888888888888s" keyTimes="0;1" keySplines="0.55 0.055 0.675 0.19" values="0 0;0 100"/></g><g><path d="M 95.896 83.644 L 103.96 83.644 L 103.96 119.5 L 95.896 119.5 Z" stroke-linecap="round" fill="rgb(255,255,255)" stroke="none" stroke-width="1" fill-rule="nonzero" opacity="1" transform="matrix(0.7478,0,0,0.741,365.56438317999994,401.992156)"><animate attributeName="opacity" dur="1s" fill="freeze" calcMode="spline" keyTimes="0;1" keySplines="0.55 0.055 0.675 0.19" begin="0.9444444444444444s" values="1;0"/></path><animateTransform attributeName="transform" type="translate" additive="sum" fill="freeze" calcMode="spline" dur="1s" begin="0.9444444444444444s" keyTimes="0;1" keySplines="0.55 0.055 0.675 0.19" values="0 0;0 100"/></g><g><path d="M 104.752 68.452 L 104.752 76.156 L 95.176 76.156 L 95.176 68.452 Z" stroke-linecap="round" fill="rgb(255,255,255)" stroke="none" stroke-width="1" fill-rule="nonzero" opacity="1" transform="matrix(0.7478,0,0,0.741,365.56438318,401.992156)"><animate attributeName="opacity" dur="1s" fill="freeze" calcMode="spline" keyTimes="0;1" keySplines="0.55 0.055 0.675 0.19" begin="1s" values="1;0"/></path><animateTransform attributeName="transform" type="translate" additive="sum" fill="freeze" calcMode="spline" dur="1s" begin="1s" keyTimes="0;1" keySplines="0.55 0.055 0.675 0.19" values="0 0;0 100"/></g><g><path d="M 101.224 113.812 L 98.416 113.812 L 110.8 83.644 L 119.512 83.644 L 103.672 119.5 L 96.04 119.5 L 80.416 83.644 L 89.2 83.644 Z" stroke-linecap="round" fill="rgb(255,255,255)" stroke="none" stroke-width="1" fill-rule="nonzero" opacity="1" transform="matrix(0.7478,0,0,0.741,387.90864718,401.992156)"><animate attributeName="opacity" dur="1s" fill="freeze" calcMode="spline" keyTimes="0;1" keySplines="0.55 0.055 0.675 0.19" begin="1.0555555555555556s" values="1;0"/></path><animateTransform attributeName="transform" type="translate" additive="sum" fill="freeze" calcMode="spline" dur="1s" begin="1.0555555555555556s" keyTimes="0;1" keySplines="0.55 0.055 0.675 0.19" values="0 0;0 100"/></g><g><path d="M 95.896 83.644 L 103.96 83.644 L 103.96 119.5 L 95.896 119.5 Z" stroke-linecap="round" fill="rgb(255,255,255)" stroke="none" stroke-width="1" fill-rule="nonzero" opacity="1" transform="matrix(0.7478,0,0,0.741,410.25291117999996,401.992156)"><animate attributeName="opacity" dur="1s" fill="freeze" calcMode="spline" keyTimes="0;1" keySplines="0.55 0.055 0.675 0.19" begin="1.1111111111111112s" values="1;0"/></path><animateTransform attributeName="transform" type="translate" additive="sum" fill="freeze" calcMode="spline" dur="1s" begin="1.1111111111111112s" keyTimes="0;1" keySplines="0.55 0.055 0.675 0.19" values="0 0;0 100"/></g><g><path d="M 104.752 68.452 L 104.752 76.156 L 95.176 76.156 L 95.176 68.452 Z" stroke-linecap="round" fill="rgb(255,255,255)" stroke="none" stroke-width="1" fill-rule="nonzero" opacity="1" transform="matrix(0.7478,0,0,0.741,410.25291118,401.992156)"><animate attributeName="opacity" dur="1s" fill="freeze" calcMode="spline" keyTimes="0;1" keySplines="0.55 0.055 0.675 0.19" begin="1.1666666666666665s" values="1;0"/></path><animateTransform attributeName="transform" type="translate" additive="sum" fill="freeze" calcMode="spline" dur="1s" begin="1.1666666666666665s" keyTimes="0;1" keySplines="0.55 0.055 0.675 0.19" values="0 0;0 100"/></g><g><path d="M 81.352 83.644 L 89.344 83.644 L 89.344 119.5 L 81.352 119.5 Z M 104.464 82.852 Q 107.56 82.852 110.152 83.716 Q 112.816 84.58 114.688 86.38 Q 116.632 88.108 117.64 90.7 Q 118.72 93.292 118.72 96.82 L 118.72 119.5 L 110.728 119.5 L 110.728 98.404 Q 110.728 94.012 108.568 91.924 Q 106.48 89.764 101.944 89.764 Q 98.488 89.764 95.608 91.276 Q 92.8 92.716 91 95.092 Q 89.2 97.396 88.912 100.204 L 88.84 96.316 Q 89.2 93.652 90.424 91.276 Q 91.648 88.828 93.664 86.956 Q 95.68 85.012 98.416 83.932 Q 101.152 82.852 104.464 82.852 Z" stroke-linecap="round" fill="rgb(255,255,255)" stroke="none" stroke-width="1" fill-rule="nonzero" opacity="1" transform="matrix(0.7478,0,0,0.741,434.32010638,401.992156)"><animate attributeName="opacity" dur="1s" fill="freeze" calcMode="spline" keyTimes="0;1" keySplines="0.55 0.055 0.675 0.19" begin="1.2777777777777777s" values="1;0"/></path><animateTransform attributeName="transform" type="translate" additive="sum" fill="freeze" calcMode="spline" dur="1s" begin="1.2777777777777777s" keyTimes="0;1" keySplines="0.55 0.055 0.675 0.19" values="0 0;0 100"/></g><g><path d="M 98.056 113.956 Q 93.016 113.956 88.912 112.156 Q 84.88 110.356 82.504 106.9 Q 80.2 103.444 80.2 98.62 Q 80.2 93.796 82.432 90.268 Q 84.736 86.74 88.768 84.796 Q 92.872 82.852 98.056 82.852 Q 99.568 82.852 100.936 83.068 Q 102.376 83.284 103.672 83.644 L 120.448 83.716 L 120.448 90.412 Q 116.992 90.484 113.464 89.476 Q 110.008 88.396 107.344 87.244 L 107.128 86.812 Q 109.576 88.036 111.52 89.836 Q 113.536 91.564 114.688 93.796 Q 115.84 96.028 115.84 98.836 Q 115.84 103.588 113.536 106.972 Q 111.304 110.356 107.272 112.156 Q 103.312 113.956 98.056 113.956 Z M 109.576 134.116 L 109.576 132.46 Q 109.576 128.932 107.488 127.492 Q 105.4 126.052 101.656 126.052 L 91.936 126.052 Q 89.056 126.052 86.968 125.548 Q 84.952 125.116 83.728 124.18 Q 82.504 123.316 81.928 122.092 Q 81.352 120.94 81.352 119.5 Q 81.352 116.62 83.08 115.18 Q 84.88 113.74 87.76 113.308 Q 90.712 112.876 93.952 113.164 L 98.056 113.956 Q 93.808 114.1 91.576 114.748 Q 89.416 115.324 89.416 117.124 Q 89.416 118.204 90.28 118.852 Q 91.144 119.5 92.728 119.5 L 102.952 119.5 Q 107.344 119.5 110.656 120.508 Q 113.968 121.588 115.768 124.036 Q 117.64 126.556 117.64 130.876 L 117.64 134.116 Z M 98.056 107.692 Q 100.936 107.692 103.168 106.612 Q 105.4 105.532 106.696 103.516 Q 107.992 101.5 107.992 98.62 Q 107.992 95.74 106.696 93.652 Q 105.4 91.564 103.168 90.484 Q 100.936 89.404 98.056 89.404 Q 95.248 89.404 92.944 90.484 Q 90.712 91.564 89.416 93.652 Q 88.12 95.668 88.12 98.62 Q 88.12 101.5 89.416 103.516 Q 90.712 105.532 92.944 106.612 Q 95.176 107.692 98.056 107.692 Z" stroke-linecap="round" fill="rgb(255,255,255)" stroke="none" stroke-width="1" fill-rule="nonzero" opacity="1" transform="matrix(0.7478,0,0,0.741,468.34799758,401.992156)"><animate attributeName="opacity" dur="1s" fill="freeze" calcMode="spline" keyTimes="0;1" keySplines="0.55 0.055 0.675 0.19" begin="1.3333333333333333s" values="1;0"/></path><animateTransform attributeName="transform" type="translate" additive="sum" fill="freeze" calcMode="spline" dur="1s" begin="1.3333333333333333s" keyTimes="0;1" keySplines="0.55 0.055 0.675 0.19" values="0 0;0 100"/></g><g><path d="M 88.372 99.628 L 88.372 112.444 L 121.132 112.444 L 121.132 119.5 L 80.164 119.5 L 80.164 72.844 L 121.06 72.844 L 121.06 79.9 L 88.372 79.9 L 88.372 92.86 L 115.156 92.86 L 115.156 99.628 Z" stroke-linecap="round" fill="rgb(255,255,255)" stroke="none" stroke-width="1" fill-rule="nonzero" opacity="1" transform="matrix(0.7478,0,0,0.741,516.50930878,401.992156)"><animate attributeName="opacity" dur="1s" fill="freeze" calcMode="spline" keyTimes="0;1" keySplines="0.55 0.055 0.675 0.19" begin="1.3888888888888888s" values="1;0"/></path><animateTransform attributeName="transform" type="translate" additive="sum" fill="freeze" calcMode="spline" dur="1s" begin="1.3888888888888888s" keyTimes="0;1" keySplines="0.55 0.055 0.675 0.19" values="0 0;0 100"/></g><g><path d="M 120.232 105.604 Q 119.8 110.212 117.28 113.524 Q 114.76 116.836 110.512 118.564 Q 106.336 120.292 100.864 120.292 Q 94.96 120.292 90.136 118.132 Q 85.384 115.972 82.576 111.796 Q 79.768 107.62 79.768 101.644 Q 79.768 95.668 82.576 91.492 Q 85.384 87.316 90.136 85.084 Q 94.96 82.852 100.864 82.852 Q 106.336 82.852 110.512 84.652 Q 114.688 86.38 117.208 89.62 Q 119.728 92.86 120.16 97.468 L 112.816 97.468 Q 111.592 93.652 108.352 91.564 Q 105.184 89.404 100.864 89.404 Q 97.336 89.404 94.384 90.844 Q 91.432 92.212 89.632 94.948 Q 87.904 97.612 87.904 101.644 Q 87.904 105.604 89.632 108.34 Q 91.432 111.076 94.384 112.444 Q 97.336 113.74 100.864 113.74 Q 105.616 113.74 108.64 111.652 Q 111.736 109.492 112.888 105.604 Z" stroke-linecap="round" fill="rgb(255,255,255)" stroke="none" stroke-width="1" fill-rule="nonzero" opacity="1" transform="matrix(0.7478,0,0,0.741,551.96400238,401.992156)"><animate attributeName="opacity" dur="1s" fill="freeze" calcMode="spline" keyTimes="0;1" keySplines="0.55 0.055 0.675 0.19" begin="1.4444444444444444s" values="1;0"/></path><animateTransform attributeName="transform" type="translate" additive="sum" fill="freeze" calcMode="spline" dur="1s" begin="1.4444444444444444s" keyTimes="0;1" keySplines="0.55 0.055 0.675 0.19" values="0 0;0 100"/></g><g><path d="M 100.072 120.292 Q 94.096 120.292 89.344 118.132 Q 84.592 115.972 81.856 111.796 Q 79.12 107.62 79.12 101.644 Q 79.12 95.74 81.856 91.564 Q 84.592 87.316 89.344 85.084 Q 94.096 82.852 100.072 82.852 Q 106.048 82.852 110.728 85.084 Q 115.408 87.316 118.072 91.564 Q 120.808 95.74 120.808 101.644 Q 120.808 107.62 118.072 111.796 Q 115.408 115.972 110.728 118.132 Q 106.048 120.292 100.072 120.292 Z M 100.072 113.74 Q 103.528 113.74 106.408 112.372 Q 109.288 111.004 110.944 108.268 Q 112.672 105.532 112.672 101.644 Q 112.672 97.756 110.944 95.02 Q 109.288 92.284 106.408 90.844 Q 103.6 89.332 100.072 89.332 Q 96.544 89.332 93.664 90.772 Q 90.784 92.212 88.984 94.948 Q 87.256 97.684 87.256 101.644 Q 87.256 105.532 88.984 108.268 Q 90.712 111.004 93.592 112.372 Q 96.544 113.74 100.072 113.74 Z" stroke-linecap="round" fill="rgb(255,255,255)" stroke="none" stroke-width="1" fill-rule="nonzero" opacity="1" transform="matrix(0.7478,0,0,0.741,586.5841511799999,401.992156)"><animate attributeName="opacity" dur="1s" fill="freeze" calcMode="spline" keyTimes="0;1" keySplines="0.55 0.055 0.675 0.19" begin="1.5s" values="1;0"/></path><animateTransform attributeName="transform" type="translate" additive="sum" fill="freeze" calcMode="spline" dur="1s" begin="1.5s" keyTimes="0;1" keySplines="0.55 0.055 0.675 0.19" values="0 0;0 100"/></g><g><path d="M 84.196 107.692 L 91.612 107.692 Q 92.188 110.428 94.564 112.156 Q 96.94 113.812 100.972 113.812 Q 103.564 113.812 105.004 113.236 Q 106.516 112.66 107.092 111.652 Q 107.74 110.644 107.74 109.348 Q 107.74 107.764 106.804 106.9 Q 105.94 106.036 104.212 105.46 Q 102.484 104.884 99.892 104.452 Q 97.228 103.804 94.636 103.012 Q 92.044 102.22 89.956 101.068 Q 87.868 99.844 86.644 98.044 Q 85.492 96.172 85.492 93.508 Q 85.492 91.06 86.572 89.116 Q 87.724 87.1 89.74 85.732 Q 91.756 84.364 94.492 83.644 Q 97.228 82.852 100.468 82.852 Q 105.148 82.852 108.244 84.364 Q 111.412 85.876 112.996 88.612 Q 114.652 91.348 114.652 94.876 L 107.596 94.876 Q 107.02 91.996 105.364 90.7 Q 103.708 89.404 100.396 89.404 Q 97.084 89.404 95.356 90.556 Q 93.628 91.708 93.628 93.724 Q 93.628 95.236 94.708 96.172 Q 95.86 97.036 97.948 97.684 Q 100.036 98.332 102.844 98.98 Q 105.436 99.7 107.74 100.492 Q 110.044 101.212 111.844 102.364 Q 113.716 103.444 114.796 105.244 Q 115.876 107.044 115.876 109.708 Q 115.876 113.02 114.076 115.396 Q 112.348 117.772 109.036 119.068 Q 105.724 120.292 101.044 120.292 Q 96.94 120.292 93.916 119.356 Q 90.964 118.42 88.948 116.908 Q 87.004 115.396 85.924 113.668 Q 84.844 111.94 84.412 110.356 Q 84.052 108.772 84.196 107.692 Z" stroke-linecap="round" fill="rgb(255,255,255)" stroke="none" stroke-width="1" fill-rule="nonzero" opacity="1" transform="matrix(0.7478,0,0,0.741,618.14714402,401.992156)"><animate attributeName="opacity" dur="1s" fill="freeze" calcMode="spline" keyTimes="0;1" keySplines="0.55 0.055 0.675 0.19" begin="1.611111111111111s" values="1;0"/></path><animateTransform attributeName="transform" type="translate" additive="sum" fill="freeze" calcMode="spline" dur="1s" begin="1.611111111111111s" keyTimes="0;1" keySplines="0.55 0.055 0.675 0.19" values="0 0;0 100"/></g><g><path d="M 79.984 83.644 L 88.552 83.644 L 103.024 118.06 L 96.112 119.5 Z M 119.944 83.644 L 96.904 133.9 L 88.48 133.9 L 98.344 114.244 L 111.376 83.644 Z" stroke-linecap="round" fill="rgb(255,255,255)" stroke="none" stroke-width="1" fill-rule="nonzero" opacity="1" transform="matrix(0.7478,0,0,0.741,647.10210958,401.992156)"><animate attributeName="opacity" dur="1s" fill="freeze" calcMode="spline" keyTimes="0;1" keySplines="0.55 0.055 0.675 0.19" begin="1.6666666666666665s" values="1;0"/></path><animateTransform attributeName="transform" type="translate" additive="sum" fill="freeze" calcMode="spline" dur="1s" begin="1.6666666666666665s" keyTimes="0;1" keySplines="0.55 0.055 0.675 0.19" values="0 0;0 100"/></g><g><path d="M 84.196 107.692 L 91.612 107.692 Q 92.188 110.428 94.564 112.156 Q 96.94 113.812 100.972 113.812 Q 103.564 113.812 105.004 113.236 Q 106.516 112.66 107.092 111.652 Q 107.74 110.644 107.74 109.348 Q 107.74 107.764 106.804 106.9 Q 105.94 106.036 104.212 105.46 Q 102.484 104.884 99.892 104.452 Q 97.228 103.804 94.636 103.012 Q 92.044 102.22 89.956 101.068 Q 87.868 99.844 86.644 98.044 Q 85.492 96.172 85.492 93.508 Q 85.492 91.06 86.572 89.116 Q 87.724 87.1 89.74 85.732 Q 91.756 84.364 94.492 83.644 Q 97.228 82.852 100.468 82.852 Q 105.148 82.852 108.244 84.364 Q 111.412 85.876 112.996 88.612 Q 114.652 91.348 114.652 94.876 L 107.596 94.876 Q 107.02 91.996 105.364 90.7 Q 103.708 89.404 100.396 89.404 Q 97.084 89.404 95.356 90.556 Q 93.628 91.708 93.628 93.724 Q 93.628 95.236 94.708 96.172 Q 95.86 97.036 97.948 97.684 Q 100.036 98.332 102.844 98.98 Q 105.436 99.7 107.74 100.492 Q 110.044 101.212 111.844 102.364 Q 113.716 103.444 114.796 105.244 Q 115.876 107.044 115.876 109.708 Q 115.876 113.02 114.076 115.396 Q 112.348 117.772 109.036 119.068 Q 105.724 120.292 101.044 120.292 Q 96.94 120.292 93.916 119.356 Q 90.964 118.42 88.948 116.908 Q 87.004 115.396 85.924 113.668 Q 84.844 111.94 84.412 110.356 Q 84.052 108.772 84.196 107.692 Z" stroke-linecap="round" fill="rgb(255,255,255)" stroke="none" stroke-width="1" fill-rule="nonzero" opacity="1" transform="matrix(0.7478,0,0,0.741,676.1345472200001,401.992156)"><animate attributeName="opacity" dur="1s" fill="freeze" calcMode="spline" keyTimes="0;1" keySplines="0.55 0.055 0.675 0.19" begin="1.722222222222222s" values="1;0"/></path><animateTransform attributeName="transform" type="translate" additive="sum" fill="freeze" calcMode="spline" dur="1s" begin="1.722222222222222s" keyTimes="0;1" keySplines="0.55 0.055 0.675 0.19" values="0 0;0 100"/></g><g><path d="M 87.4 83.644 L 112.744 83.644 L 112.744 90.196 L 87.4 90.196 Z M 96.04 73.996 L 104.104 73.996 L 104.104 119.5 L 96.04 119.5 Z" stroke-linecap="round" fill="rgb(255,255,255)" stroke="none" stroke-width="1" fill-rule="nonzero" opacity="1" transform="matrix(0.7478,0,0,0.741,700.94370958,401.992156)"><animate attributeName="opacity" dur="1s" fill="freeze" calcMode="spline" keyTimes="0;1" keySplines="0.55 0.055 0.675 0.19" begin="1.7777777777777777s" values="1;0"/></path><animateTransform attributeName="transform" type="translate" additive="sum" fill="freeze" calcMode="spline" dur="1s" begin="1.7777777777777777s" keyTimes="0;1" keySplines="0.55 0.055 0.675 0.19" values="0 0;0 100"/></g><g><path d="M 111.916 107.692 L 119.62 107.692 Q 119.044 111.364 116.74 114.244 Q 114.508 117.052 110.62 118.708 Q 106.732 120.292 101.332 120.292 Q 95.212 120.292 90.388 118.06 Q 85.564 115.756 82.828 111.58 Q 80.092 107.404 80.092 101.644 Q 80.092 95.956 82.756 91.708 Q 85.42 87.46 90.1 85.156 Q 94.852 82.852 101.044 82.852 Q 107.452 82.852 111.7 85.156 Q 116.02 87.388 118.108 91.924 Q 120.196 96.388 119.836 103.228 L 88.228 103.228 Q 88.588 106.252 90.172 108.7 Q 91.828 111.076 94.636 112.444 Q 97.444 113.74 101.188 113.74 Q 105.364 113.74 108.172 112.084 Q 111.052 110.428 111.916 107.692 Z M 100.828 89.332 Q 95.932 89.332 92.764 91.78 Q 89.596 94.156 88.66 97.9 L 111.772 97.9 Q 111.484 93.868 108.532 91.636 Q 105.58 89.332 100.828 89.332 Z" stroke-linecap="round" fill="rgb(255,255,255)" stroke="none" stroke-width="1" fill-rule="nonzero" opacity="1" transform="matrix(0.7478,0,0,0.741,728.21447998,401.992156)"><animate attributeName="opacity" dur="1s" fill="freeze" calcMode="spline" keyTimes="0;1" keySplines="0.55 0.055 0.675 0.19" begin="1.8333333333333333s" values="1;0"/></path><animateTransform attributeName="transform" type="translate" additive="sum" fill="freeze" calcMode="spline" dur="1s" begin="1.8333333333333333s" keyTimes="0;1" keySplines="0.55 0.055 0.675 0.19" values="0 0;0 100"/></g><g><path d="M 67.06 83.644 L 75.052 83.644 L 75.052 119.5 L 67.06 119.5 Z M 90.172 82.852 Q 93.268 82.852 95.86 83.716 Q 98.524 84.58 100.396 86.38 Q 102.34 88.108 103.348 90.7 Q 104.428 93.292 104.428 96.82 L 104.428 119.5 L 96.436 119.5 L 96.436 98.404 Q 96.436 94.012 94.276 91.924 Q 92.188 89.764 87.652 89.764 Q 84.196 89.764 81.316 91.276 Q 78.508 92.716 76.708 95.092 Q 74.908 97.396 74.62 100.204 L 74.548 96.316 Q 74.908 93.652 76.132 91.276 Q 77.356 88.828 79.372 86.956 Q 81.388 85.012 84.124 83.932 Q 86.86 82.852 90.172 82.852 Z M 118.756 82.852 Q 121.924 82.852 124.516 83.716 Q 127.108 84.58 128.98 86.38 Q 130.924 88.108 132.004 90.7 Q 133.084 93.292 133.084 96.82 L 133.084 119.5 L 125.02 119.5 L 125.02 98.404 Q 125.02 94.012 122.86 91.924 Q 120.772 89.764 116.236 89.764 Q 112.78 89.764 109.9 91.276 Q 107.092 92.716 105.292 95.092 Q 103.564 97.396 103.276 100.204 L 103.132 96.172 Q 103.492 93.58 104.788 91.204 Q 106.084 88.756 108.1 86.884 Q 110.116 85.012 112.78 83.932 Q 115.516 82.852 118.756 82.852 Z" stroke-linecap="round" fill="rgb(255,255,255)" stroke="none" stroke-width="1" fill-rule="nonzero" opacity="1" transform="matrix(0.7478,0,0,0.741,773.01069118,401.992156)"><animate attributeName="opacity" dur="1s" fill="freeze" calcMode="spline" keyTimes="0;1" keySplines="0.55 0.055 0.675 0.19" begin="1.9444444444444444s" values="1;0"/></path><animateTransform attributeName="transform" type="translate" additive="sum" fill="freeze" calcMode="spline" dur="1s" begin="1.9444444444444444s" keyTimes="0;1" keySplines="0.55 0.055 0.675 0.19" values="0 0;0 100"/></g><g><path d="M 84.196 107.692 L 91.612 107.692 Q 92.188 110.428 94.564 112.156 Q 96.94 113.812 100.972 113.812 Q 103.564 113.812 105.004 113.236 Q 106.516 112.66 107.092 111.652 Q 107.74 110.644 107.74 109.348 Q 107.74 107.764 106.804 106.9 Q 105.94 106.036 104.212 105.46 Q 102.484 104.884 99.892 104.452 Q 97.228 103.804 94.636 103.012 Q 92.044 102.22 89.956 101.068 Q 87.868 99.844 86.644 98.044 Q 85.492 96.172 85.492 93.508 Q 85.492 91.06 86.572 89.116 Q 87.724 87.1 89.74 85.732 Q 91.756 84.364 94.492 83.644 Q 97.228 82.852 100.468 82.852 Q 105.148 82.852 108.244 84.364 Q 111.412 85.876 112.996 88.612 Q 114.652 91.348 114.652 94.876 L 107.596 94.876 Q 107.02 91.996 105.364 90.7 Q 103.708 89.404 100.396 89.404 Q 97.084 89.404 95.356 90.556 Q 93.628 91.708 93.628 93.724 Q 93.628 95.236 94.708 96.172 Q 95.86 97.036 97.948 97.684 Q 100.036 98.332 102.844 98.98 Q 105.436 99.7 107.74 100.492 Q 110.044 101.212 111.844 102.364 Q 113.716 103.444 114.796 105.244 Q 115.876 107.044 115.876 109.708 Q 115.876 113.02 114.076 115.396 Q 112.348 117.772 109.036 119.068 Q 105.724 120.292 101.044 120.292 Q 96.94 120.292 93.916 119.356 Q 90.964 118.42 88.948 116.908 Q 87.004 115.396 85.924 113.668 Q 84.844 111.94 84.412 110.356 Q 84.052 108.772 84.196 107.692 Z" stroke-linecap="round" fill="rgb(255,255,255)" stroke="none" stroke-width="1" fill-rule="nonzero" opacity="1" transform="matrix(0.7478,0,0,0.741,814.99203362,401.992156)"><animate attributeName="opacity" dur="1s" fill="freeze" calcMode="spline" keyTimes="0;1" keySplines="0.55 0.055 0.675 0.19" begin="2s" values="1;0"/></path><animateTransform attributeName="transform" type="translate" additive="sum" fill="freeze" calcMode="spline" dur="1s" begin="2s" keyTimes="0;1" keySplines="0.55 0.055 0.675 0.19" values="0 0;0 100"/></g></svg>